<svg width="70" height="68" viewBox="0 0 70 68" fill="none" xmlns="http://www.w3.org/2000/svg">
<g clip-path="url(#clip0_349_50572)">
<path d="M45.0592 67.4777C44.2194 67.2944 43.3164 67.2407 42.5494 66.9056C39.7166 65.6671 36.8358 64.4888 34.1391 63.0134C19.3718 54.9358 8.57407 43.3758 1.34577 28.7433C0.123844 26.3033 -0.27996 23.5642 0.18922 20.8981C0.6584 18.232 1.97781 15.7681 3.96824 13.841C5.9131 11.9427 7.89508 10.0797 9.8688 8.21155C10.6632 7.45878 11.389 7.45878 12.182 8.21155C16.9954 12.7884 21.806 17.3705 26.6139 21.9578C27.3946 22.7027 27.3891 23.4084 26.6015 24.1625C24.5728 26.104 22.5345 28.035 20.503 29.9752C19.1533 31.2634 19.0172 32.4207 20.0907 33.925C20.936 35.1111 21.8349 36.2618 22.7145 37.4257C23.0815 37.9114 23.1654 38.4246 22.852 38.9495C22.5606 39.4248 22.0837 39.6774 21.5243 39.5504C21.1498 39.4721 20.8122 39.28 20.5621 39.0032C19.4749 37.609 18.3726 36.2186 17.4009 34.7484C16.0663 32.7218 16.4786 30.1454 18.33 28.3505C19.9794 26.7533 21.6493 25.1784 23.3165 23.6008C23.4926 23.4529 23.6801 23.3177 23.8773 23.1963L10.9643 10.9098C10.9132 10.9296 10.8666 10.9585 10.8268 10.9948C9.13347 12.6104 7.40165 14.1905 5.75917 15.8519C2.5979 19.0449 1.8117 23.5537 3.77031 27.5297C11.4673 43.1507 23.2176 55.0693 39.5063 62.8065C40.9482 63.4912 42.4285 64.1943 43.9761 64.5661C47.4123 65.3961 50.6436 64.6642 53.3403 62.495C55.4762 60.7773 57.3853 58.8057 59.3605 56.9781L46.4474 44.6824C45.8756 45.2401 45.264 45.8449 44.6413 46.4406C43.4511 47.5822 42.2621 48.7251 41.0581 49.8523C38.9373 51.8357 36.2228 52.0962 33.7735 50.5213C32.399 49.635 31.052 48.6885 29.7119 47.7537C28.9244 47.1999 28.78 46.3961 29.2996 45.7808C29.8191 45.1655 30.5902 45.1445 31.3613 45.6787C32.6368 46.5558 33.8999 47.4513 35.2002 48.297C36.7121 49.2776 37.9326 49.1427 39.2424 47.9043C41.2482 46.0016 43.2504 44.0963 45.2488 42.1884C46.2481 41.238 46.8542 41.238 47.8521 42.1884C52.5665 46.6754 57.2795 51.1632 61.9912 55.6519C62.9739 56.588 62.9712 57.1837 61.9788 58.1289C60.0243 59.9879 58.0877 61.8626 56.1085 63.6981C53.9298 65.7463 51.0948 67.0421 48.0541 67.3795C47.9213 67.4061 47.7908 67.4424 47.6638 67.4881L45.0592 67.4777Z" fill="#F5AA2C"/>
<path d="M69.9589 16.0234C70.5293 22.6308 65.2431 30.4989 56.1304 31.8277C53.2276 32.2519 50.4058 31.9154 47.661 30.9113C47.3352 30.8083 46.9809 30.8232 46.6659 30.9532C44.2881 32.0516 41.9254 33.1788 39.5668 34.3177C38.9318 34.6241 38.3174 34.772 37.725 34.2798C37.1326 33.7875 37.1972 33.1892 37.4268 32.5464C38.2514 30.2462 39.0418 27.9369 39.8637 25.6366C39.937 25.4705 39.9653 25.2894 39.9461 25.1101C39.9269 24.9308 39.8607 24.7589 39.7537 24.6103C33.5095 15.0049 39.5489 2.56515 51.2772 0.851447C60.1782 -0.449867 68.7205 5.59719 69.9452 14.0924C70.0524 14.8399 69.9589 15.6123 69.9589 16.0234ZM40.9715 30.7215C42.7775 29.8653 44.4242 29.1217 46.0309 28.3047C46.7676 27.9303 47.4054 27.912 48.1627 28.2471C50.6902 29.3541 53.5206 29.6708 56.2486 29.1518C63.4811 27.8518 68.3755 21.2444 67.2237 14.3176C66.0719 7.39075 59.3536 2.5586 52.0675 3.40433C41.8965 4.58258 36.6103 15.522 42.3363 23.5865C42.8999 24.3785 42.9906 25.0711 42.6483 25.943C42.0546 27.4669 41.5625 29.0222 40.9715 30.7215Z" fill="#F5AA2C"/>
<path d="M27.1057 42.7094C27.1016 42.8822 27.0618 43.0525 26.9886 43.2107C26.9154 43.3688 26.8101 43.5117 26.6789 43.631C26.5477 43.7504 26.3931 43.844 26.2239 43.9065C26.0547 43.9689 25.8742 43.999 25.6928 43.995C25.3386 43.9805 25.004 43.8362 24.7589 43.5922C24.5138 43.3483 24.3771 43.0235 24.3774 42.6858C24.3803 42.5129 24.4191 42.3422 24.4916 42.1836C24.5641 42.0251 24.6689 41.8817 24.7999 41.762C24.9309 41.6422 25.0855 41.5483 25.2548 41.4858C25.4241 41.4232 25.6047 41.3933 25.7863 41.3976C26.1405 41.4143 26.4746 41.5596 26.72 41.8035C26.9653 42.0474 27.1034 42.3716 27.1057 42.7094Z" fill="#F5AA2C"/>
<path d="M46.8319 16.373C46.819 16.722 46.6612 17.0519 46.3932 17.2902C46.1252 17.5286 45.7689 17.6559 45.4024 17.6442C45.048 17.626 44.7148 17.4779 44.4724 17.231C44.2301 16.984 44.0974 16.6573 44.1022 16.3193C44.1071 16.1464 44.148 15.976 44.2225 15.8182C44.297 15.6604 44.4036 15.5182 44.5362 15.3999C44.6687 15.2816 44.8246 15.1894 44.9947 15.1288C45.1649 15.0682 45.346 15.0403 45.5275 15.0468C45.8818 15.0669 46.2145 15.2156 46.4571 15.4623C46.6998 15.709 46.8339 16.035 46.8319 16.373Z" fill="#F5AA2C"/>
<path d="M53.6578 15.0455C53.8396 15.0441 54.0199 15.0769 54.1884 15.1419C54.3569 15.207 54.5103 15.3031 54.6397 15.4247C54.7692 15.5463 54.8722 15.691 54.9428 15.8506C55.0135 16.0102 55.0504 16.1814 55.0515 16.3546C55.0446 16.6924 54.9017 17.0148 54.6522 17.2551C54.4028 17.4954 54.066 17.6351 53.7114 17.6455C53.3563 17.6496 53.0133 17.5228 52.7543 17.2914C52.4952 17.06 52.3403 16.7422 52.3218 16.4044C52.3148 16.2314 52.344 16.0587 52.4075 15.8965C52.4711 15.7343 52.5677 15.5857 52.692 15.4593C52.8162 15.3329 52.9656 15.2313 53.1314 15.1602C53.2971 15.0892 53.4761 15.0502 53.6578 15.0455Z" fill="#F5AA2C"/>
<path d="M63.2708 16.3626C63.2671 16.5356 63.2273 16.7063 63.1539 16.8646C63.0805 17.023 62.9748 17.1659 62.843 17.2851C62.7113 17.4042 62.556 17.4974 62.3862 17.559C62.2163 17.6207 62.0354 17.6496 61.8537 17.6442C61.5003 17.6287 61.1667 17.484 60.9224 17.2401C60.6782 16.9963 60.5421 16.6721 60.5425 16.3351C60.546 16.1621 60.5855 15.9915 60.6587 15.8332C60.7319 15.6749 60.8373 15.532 60.9688 15.4127C61.1003 15.2934 61.2553 15.2001 61.4249 15.1382C61.5945 15.0763 61.7753 15.047 61.9568 15.0521C62.3101 15.0694 62.643 15.2149 62.8873 15.4585C63.1316 15.7022 63.2688 16.0256 63.2708 16.3626Z" fill="#F5AA2C"/>
</g>
<defs>
<clipPath id="clip0_349_50572">
<rect width="70" height="66.8017" fill="white" transform="translate(0 0.676025)"/>
</clipPath>
</defs>
</svg>
