<svg width="70" height="68" viewBox="0 0 70 68" fill="none" xmlns="http://www.w3.org/2000/svg">
<g clip-path="url(#clip0_349_50584)">
<path d="M23.6841 18.3204H23.0687C20.5872 18.3204 18.1076 18.3204 15.6261 18.3204C14.8957 18.3204 14.4885 18.6682 14.4685 19.2422C14.4484 19.8161 14.8665 20.2266 15.6097 20.2683C15.7229 20.2683 15.8361 20.2683 15.9511 20.2683C21.0955 20.2683 26.2392 20.2683 31.3823 20.2683C31.654 20.2787 31.9258 20.2518 32.1894 20.1883C32.3215 20.1531 32.4442 20.0915 32.5494 20.0077C32.6546 19.9239 32.74 19.8198 32.7999 19.7023C32.8598 19.5848 32.8928 19.4565 32.8968 19.3259C32.9008 19.1953 32.8756 19.0654 32.823 18.9448C32.6057 18.4039 32.1419 18.3152 31.6033 18.3152C28.9629 18.3239 26.3299 18.3204 23.6841 18.3204ZM23.6494 22.2267H16.8221C16.3437 22.2267 15.8635 22.211 15.3887 22.2441C15.1466 22.2441 14.9144 22.3357 14.7432 22.4988C14.572 22.6619 14.4758 22.883 14.4758 23.1137C14.4403 23.3432 14.5005 23.5768 14.6434 23.7647C14.7864 23.9525 15.0008 24.0797 15.2408 24.119C15.463 24.1626 15.6898 24.1801 15.9164 24.1711C21.0839 24.1711 26.2508 24.1711 31.417 24.1711C31.6873 24.1711 32.0415 24.2094 32.2077 24.0685C32.4998 23.8216 32.8175 23.4685 32.865 23.1259C32.9271 22.6719 32.5747 22.3206 32.0488 22.2458C31.8227 22.222 31.5951 22.2138 31.3677 22.2215L23.6494 22.2267ZM21.3268 26.133C19.4369 26.133 17.5488 26.133 15.6663 26.133C15.0491 26.133 14.5871 26.3278 14.4867 26.9643C14.3808 27.6357 14.8629 28.0809 15.7192 28.0826C19.4077 28.0919 23.0949 28.0919 26.7809 28.0826C27.6318 28.0826 28.0938 27.707 28.0792 27.0739C28.0646 26.4408 27.6336 26.1365 26.801 26.1347C24.9677 26.1278 23.1472 26.133 21.3268 26.133Z" fill="white"/>
<path d="M44.5702 67.3071C43.2756 67.0897 41.9682 66.9245 40.6901 66.6462C31.2827 64.5974 23.8091 56.5205 22.8194 47.3652C21.6928 36.9299 27.5998 27.6234 37.8105 23.7275C50.8314 18.7568 66.1439 26.3363 69.2974 39.3474C71.096 46.7617 69.438 53.4438 64.3673 59.3345C64.0879 59.658 64.0678 59.898 64.2687 60.2528C65.2995 62.1362 66.9642 63.6355 68.9961 64.5104C69.5147 64.7365 70.0132 64.9574 69.9931 65.5975C69.9712 66.2705 69.4325 66.4984 68.8683 66.641C67.9754 66.8775 67.0734 67.081 66.175 67.3002H63.5803C63.5046 67.2556 63.4229 67.2211 63.3375 67.1975C61.2744 66.9417 59.3148 66.1859 57.6459 65.0026C57.4633 64.8722 57.0616 64.9 56.8096 64.9852C55.2685 65.507 53.7658 66.1383 52.2009 66.5679C50.8807 66.9297 49.4894 67.0636 48.1309 67.3002L44.5702 67.3071ZM66.1366 65.2322C65.8956 65.0374 65.7459 64.9122 65.5889 64.7922C64.1656 63.6671 63.0103 62.2661 62.1999 60.6824C61.7105 59.7606 61.8347 59.1171 62.5651 58.3101C67.2176 53.1655 68.9194 47.1913 67.4769 40.5579C65.1032 29.6635 54.2843 22.6875 42.7424 24.4615C29.4275 26.5068 21.2911 39.9405 26.086 51.9794C27.1685 54.7297 28.856 57.2277 31.0352 59.3058C33.2145 61.3839 35.8351 62.9941 38.7213 64.0284C41.6075 65.0626 44.6925 65.497 47.7695 65.3024C50.8464 65.1077 53.844 64.2886 56.5613 62.8999C57.4615 62.4443 57.6569 62.4599 58.4457 63.0965C59.7149 64.1305 61.2403 64.8387 62.8773 65.1539C63.9126 65.3522 64.9626 65.4566 66.1366 65.2322Z" fill="#F5A828"/>
<path d="M-0.000125382 21.6075C0.222642 20.3744 0.385156 19.1291 0.67731 17.9117C2.71691 9.38951 10.3823 2.49351 19.4281 1.02213C31.998 -1.02145 43.5819 6.14761 46.6824 17.8926C46.7773 18.2404 46.8558 18.6108 46.9198 18.9743C47.0403 19.67 46.7225 20.1501 46.1109 20.2509C45.5393 20.3448 45.1285 20.0022 44.9148 19.3413C44.4091 17.776 44.0256 16.1446 43.3263 14.6559C39.5776 6.69025 31.0083 2.05175 22.1707 2.65526C12.2375 3.33008 4.50452 10.2348 2.60187 18.6665C1.05528 25.5295 2.76255 31.6428 7.60135 36.9405C8.14914 37.5457 8.29521 38.0623 7.9428 38.8067C7.12962 40.5594 5.88663 42.1006 4.31827 43.3008C4.19594 43.3947 4.0809 43.4973 3.96587 43.5982C3.95491 43.6086 3.96587 43.6365 3.96587 43.7095C6.21107 43.9859 8.48672 43.5001 10.3932 42.3373C10.8853 42.0247 11.3572 41.6844 11.8065 41.3181C12.2247 40.9929 12.6556 40.9215 13.1304 41.1755C15.1633 42.2488 17.3605 43.0117 19.6417 43.4365C20.3484 43.5721 20.6898 44.0278 20.5821 44.5722C20.4671 45.1548 19.9631 45.4418 19.2309 45.3287C17.1669 44.9809 15.1675 44.3468 13.2965 43.4469C12.8382 43.226 12.5552 43.273 12.1498 43.553C8.8211 45.7983 5.18925 46.2975 1.31274 45.1357C0.841643 44.9948 0.438107 44.6487 0.00170236 44.3965V43.6156C0.3554 43.3608 0.72626 43.1284 1.11189 42.9199C3.03588 42.0398 4.62481 40.6114 5.65852 38.8327C5.93424 38.3649 5.90138 38.064 5.53071 37.6483C3.24926 35.1229 1.62302 32.1221 0.783219 28.8879C0.44359 27.5678 0.255507 26.2112 -0.00195312 24.872L-0.000125382 21.6075Z" fill="#F5A828"/>
<path d="M23.6844 18.3203C26.3229 18.3203 28.9632 18.3203 31.6035 18.3203C32.1513 18.3203 32.606 18.409 32.8233 18.9499C32.8759 19.0706 32.9011 19.2005 32.8971 19.331C32.8931 19.4616 32.8601 19.5899 32.8002 19.7075C32.7403 19.825 32.6549 19.9291 32.5497 20.0128C32.4444 20.0966 32.3217 20.1582 32.1897 20.1935C31.9261 20.2569 31.6543 20.2839 31.3826 20.2735C26.2395 20.2735 21.0957 20.2735 15.9514 20.2735C15.8364 20.2735 15.7232 20.2735 15.6099 20.2735C14.8668 20.2317 14.445 19.8543 14.4687 19.2473C14.4925 18.6403 14.8869 18.329 15.6264 18.3255C18.1079 18.3255 20.5875 18.3255 23.069 18.3255L23.6844 18.3203Z" fill="#F5A828"/>
<path d="M23.6502 22.2266H31.3667C31.5941 22.219 31.8217 22.2272 32.0478 22.251C32.5737 22.3258 32.9261 22.6771 32.864 23.131C32.8166 23.4789 32.4988 23.8267 32.2067 24.0737C32.0405 24.2146 31.6863 24.1746 31.416 24.1763C26.2498 24.1763 21.0829 24.1763 15.9155 24.1763C15.6889 24.1853 15.462 24.1677 15.2399 24.1241C14.9998 24.0848 14.7854 23.9577 14.6425 23.7699C14.4995 23.582 14.4393 23.3484 14.4748 23.1189C14.4748 22.8882 14.571 22.667 14.7422 22.504C14.9134 22.3409 15.1456 22.2493 15.3878 22.2493C15.8625 22.2162 16.3427 22.2319 16.8211 22.2319L23.6502 22.2266Z" fill="#F5A828"/>
<path d="M21.3274 26.1329C23.1533 26.1329 24.9683 26.1329 26.7907 26.1329C27.6269 26.1329 28.056 26.4581 28.0688 27.072C28.0816 27.686 27.6215 28.079 26.7706 28.0808C23.0846 28.0808 19.3973 28.0808 15.7089 28.0808C14.8525 28.0808 14.3705 27.6338 14.4764 26.9625C14.5768 26.3259 15.0388 26.1294 15.6559 26.1311C17.5495 26.1363 19.4375 26.1329 21.3274 26.1329Z" fill="#F5A828"/>
<path d="M59.6542 42.6851C59.5702 46.414 58.1241 49.2315 55.9147 51.7291C53.4624 54.5118 50.4368 56.5989 47.0588 58.2529C46.7155 58.4268 46.1458 58.5085 45.8408 58.3572C41.3033 56.1397 37.3008 53.2944 34.7299 48.9585C33.4517 46.821 32.7889 44.5148 33.0664 42.0364C33.722 36.2065 40.7227 33.1299 45.8007 36.4413C46.206 36.7057 46.4452 36.7005 46.8597 36.4413C49.5987 34.756 52.4673 34.563 55.334 36.0361C58.2227 37.5249 59.5976 39.9511 59.6542 42.6851ZM57.5872 43.0886C57.6292 40.6537 56.2853 38.511 53.9956 37.5701C51.6383 36.5996 49.4124 36.8987 47.4221 38.4762C46.4105 39.278 46.2462 39.2867 45.231 38.4762C43.3831 36.9996 41.2796 36.617 39.0373 37.4223C36.795 38.2275 35.4 39.8572 35.117 42.1703C34.7956 44.8018 35.7579 47.1254 37.3081 49.2368C39.5504 52.2874 42.5906 54.4649 45.9778 56.2371C46.0829 56.2843 46.1973 56.3097 46.3135 56.3115C46.4297 56.3133 46.5449 56.2915 46.6516 56.2476C50.0186 54.4857 53.0333 52.3152 55.2847 49.3011C56.6761 47.4506 57.5544 45.407 57.5872 43.0938V43.0886Z" fill="#F5A828"/>
</g>
<defs>
<clipPath id="clip0_349_50584">
<rect width="70" height="66.6312" fill="white" transform="translate(0 0.676025)"/>
</clipPath>
</defs>
</svg>
